<svg width="159" height="36" viewBox="0 0 159 36" fill="none" xmlns="http://www.w3.org/2000/svg">
<path d="M0 12C0 5.37258 5.37258 0 12 0V24C5.37258 24 0 18.6274 0 12Z" fill="#252930"/>
<path d="M11 0H28V12H11V0Z" fill="#252930"/>
<path d="M28 12C34.6274 12 40 17.3726 40 24C40 30.6274 34.6274 36 28 36V12Z" fill="#252930"/>
<path d="M12 24H29V36H12V24Z" fill="#252930"/>
<path d="M50.9011 10.2586C50.9011 12.069 52.3517 13.1552 54.4066 13.1552H54.6484C56.3407 13.1552 57.4286 12.3103 57.4286 11.1034C57.4286 10.0172 56.8242 9.53448 55.3736 9.17241L52.8352 8.68966C50.4176 8.2069 49.0879 6.63793 49.0879 4.46552C49.0879 2.05172 51.1429 0 54.6484 0C58.1538 0 60.2088 1.93103 60.2088 4.82759H57.6703C57.5495 3.25862 56.3407 2.2931 54.6484 2.2931H54.4066C52.8352 2.2931 51.6264 3.25862 51.6264 4.34483C51.6264 5.43103 52.2308 6.03448 53.5604 6.27586L55.8571 6.75862C58.5165 7.24138 59.967 8.56897 59.967 10.9828C59.967 13.6379 57.7912 15.4483 54.2857 15.4483C50.5385 15.4483 48.4835 13.5172 48.2418 10.3793H50.9011V10.2586Z" fill="black"/>
<path d="M63.7143 6.51724H61.4176V4.46552H63.7143V1.0862H66.1319V4.5862H68.5494V6.63793H66.1319V12.069C66.1319 12.9138 66.3736 13.1552 67.2198 13.1552H69.033V15.2069H66.3736C64.6813 15.2069 63.7143 14.3621 63.7143 12.5517V6.51724Z" fill="black"/>
<path d="M71.0879 4.46552H73.5055V6.63793C73.989 5.18965 75.0769 4.34483 76.6483 4.34483H77.3736V6.63793H76.5275C74.5934 6.63793 73.6264 7.72414 73.6264 9.65517V15.0862H71.2088V4.46552H71.0879Z" fill="black"/>
<path d="M84.989 15.0862C84.989 14.8448 84.8681 14.4828 84.8681 13.8793V13.6379C84.2637 14.6034 83.055 15.3276 81.6044 15.3276C79.5495 15.3276 78.0989 14 78.0989 12.1897C78.0989 10.0172 79.7912 8.93103 81.967 8.81034L84.7473 8.56896V8.2069C84.7473 7 84.022 6.15517 82.8132 6.15517H82.5714C81.4835 6.15517 80.7582 6.75862 80.6374 7.60345H78.2198C78.4615 5.55172 80.1539 4.22414 82.6923 4.22414C85.3517 4.22414 87.1648 5.7931 87.1648 8.2069V12.7931C87.1648 13.8793 87.1648 14.6034 87.2857 15.0862H84.989ZM84.8681 10.3793L82.4506 10.6207C81.3626 10.7414 80.6374 11.2241 80.6374 12.069C80.6374 12.7931 81.2418 13.3966 82.2088 13.3966H82.3297C83.6593 13.3966 84.989 12.3103 84.989 11.1034V10.3793H84.8681Z" fill="black"/>
<path d="M90.7912 6.51724H88.4945V4.46552H90.7912V1.0862H93.2088V4.5862H95.6264V6.63793H93.2088V12.069C93.2088 12.9138 93.4506 13.1552 94.2967 13.1552H96.1099V15.2069H93.4505C91.7582 15.2069 90.7912 14.3621 90.7912 12.5517V6.51724Z" fill="black"/>
<path d="M102.396 4.22414C105.418 4.22414 107.714 6.51724 107.714 9.77586C107.714 13.0345 105.538 15.3276 102.396 15.3276C99.3736 15.3276 97.1978 13.0345 97.1978 9.77586C97.0769 6.63793 99.2527 4.22414 102.396 4.22414ZM102.396 13.3966C103.967 13.3966 105.055 12.069 105.055 9.89655C105.055 7.72414 103.967 6.39655 102.396 6.39655H102.154C100.582 6.39655 99.4945 7.72414 99.4945 9.89655C99.4945 12.069 100.582 13.3966 102.154 13.3966H102.396Z" fill="black"/>
<path d="M58.8791 30.6552H51.1429L49.4505 34.7586H48L54.1648 19.9138H56.0989L62.1429 34.7586H60.5714L58.8791 30.6552ZM58.2747 29.2069L55.011 21.1207L51.7473 29.2069H58.2747Z" fill="black"/>
<path d="M63.8352 24.1379H65.1648V30.7759C65.1648 32.8276 66.011 33.9138 67.7033 33.9138H67.945C69.5165 33.9138 71.0879 32.3448 71.0879 29.931V24.1379H72.4176V34.7586H71.0879V32.7069C70.6044 34.1552 69.2747 34.8793 67.5824 34.8793C65.2857 34.8793 63.8352 33.3103 63.8352 31.0172V24.1379Z" fill="black"/>
<path d="M77.011 25.2241H74.5934V24.0172H77.011V20.5172H78.3407V24.1379H81V25.3448H78.3407V32.8276C78.3407 33.431 78.5824 33.6724 79.1868 33.6724H81.3626V34.8793H79.0659C77.7363 34.8793 77.011 34.2759 77.011 32.9483V25.2241Z" fill="black"/>
<path d="M87.5275 23.8966C90.3077 23.8966 92.3626 26.1897 92.3626 29.4483C92.3626 32.7069 90.1868 35 87.5275 35C84.8681 35 82.6923 32.7069 82.6923 29.4483C82.5714 26.1897 84.7473 23.8966 87.5275 23.8966ZM87.6484 33.7931C89.5824 33.7931 91.033 32.1034 91.033 29.4483C91.033 26.7931 89.5824 25.1034 87.6484 25.1034H87.4066C85.4725 25.1034 84.022 26.7931 84.022 29.4483C84.022 32.1034 85.4725 33.7931 87.4066 33.7931H87.6484Z" fill="black"/>
<path d="M95.1429 24.1379H96.4725V25.8276C97.1978 24.6207 98.4066 23.8966 99.978 23.8966C101.549 23.8966 102.879 24.7414 103.363 26.069C104.088 24.6207 105.418 23.8966 107.11 23.8966C109.165 23.8966 110.736 25.3448 110.736 27.7586V34.7586H109.407V28.2414C109.407 26.069 108.56 25.1034 106.989 25.1034H106.868C104.813 25.1034 103.725 27.1552 103.725 29.4483V34.7586H102.396V28.2414C102.396 26.069 101.549 25.1034 99.978 25.1034H99.8571C97.8022 25.1034 96.7143 27.1552 96.7143 29.4483V34.7586H95.1429V24.1379Z" fill="black"/>
<path d="M120.769 34.7586C120.769 34.3966 120.648 33.7931 120.648 33.069C120.165 34.0345 118.714 35 116.901 35C115.088 35 113.516 33.6724 113.516 31.8621C113.516 30.7759 113.879 30.0517 114.604 29.569C115.33 29.0862 116.176 28.7241 117.264 28.7241L120.648 28.4828V28C120.648 26.1897 119.56 25.1034 117.989 25.1034H117.868C116.418 25.1034 115.33 25.8276 115.209 27.1552H113.879C114 25.2241 115.692 24.0172 117.989 24.0172C120.648 24.0172 122.099 25.8276 122.099 28V32.4655C122.099 33.5517 122.099 34.2759 122.22 34.7586H120.769ZM120.527 29.4483L117.385 29.6897C115.813 29.8103 114.846 30.5345 114.846 31.7414C114.846 32.9483 115.692 33.7931 117.022 33.7931H117.264C118.714 33.7931 120.648 32.4655 120.648 30.8966V29.4483H120.527Z" fill="black"/>
<path d="M125.846 25.2241H123.429V24.0172H125.846V20.5172H127.176V24.1379H129.835V25.3448H127.176V32.8276C127.176 33.431 127.418 33.6724 128.022 33.6724H130.198V34.8793H127.901C126.571 34.8793 125.846 34.2759 125.846 32.9483V25.2241Z" fill="black"/>
<path d="M132.253 20.3966H133.824V22.2069H132.253V20.3966ZM132.374 24.1379H133.824V34.7586H132.495V24.1379H132.374Z" fill="black"/>
<path d="M141.44 23.8966C144.22 23.8966 146.275 26.1897 146.275 29.4483C146.275 32.7069 144.099 35 141.44 35C138.659 35 136.604 32.7069 136.604 29.4483C136.604 26.1897 138.659 23.8966 141.44 23.8966ZM141.56 33.7931C143.495 33.7931 144.945 32.1034 144.945 29.4483C144.945 26.7931 143.495 25.1034 141.56 25.1034H141.319C139.385 25.1034 137.934 26.7931 137.934 29.4483C137.934 32.1034 139.385 33.7931 141.319 33.7931H141.56Z" fill="black"/>
<path d="M149.176 24.1379H150.505V25.9483C151.11 24.7414 152.56 23.8966 154.253 23.8966C156.429 23.8966 158 25.3448 158 27.7586V34.7586H156.549V28.2414C156.549 26.069 155.703 25.1034 154.011 25.1034H153.89C151.714 25.1034 150.505 27.1552 150.505 29.4483V34.7586H149.176V24.1379Z" fill="black"/>
</svg>
